<svg width="20" height="20" viewBox="0 0 20 20" fill="none" xmlns="http://www.w3.org/2000/svg">
<g id="Heart">
<path id="Vector" d="M9.91663 18.3334C9.78842 18.3334 9.66938 18.3059 9.55033 18.2418C9.19319 18.0495 0.896484 13.5624 0.896484 6.56602C0.896484 3.86455 3.16755 1.66675 5.96974 1.66675C7.52652 1.66675 8.97341 2.35356 9.91663 3.48909C10.8599 2.35356 12.3067 1.66675 13.8635 1.66675C16.6566 1.66675 18.9368 3.86455 18.9368 6.56602C18.9368 13.5624 10.6309 18.0587 10.2829 18.2418C10.173 18.3059 10.0448 18.3334 9.91663 18.3334ZM5.96974 3.22352C4.02835 3.22352 2.45326 4.72536 2.45326 6.56602C2.45326 11.8591 8.36901 15.7327 9.91663 16.6576C11.4642 15.7327 17.38 11.8591 17.38 6.56602C17.38 4.72536 15.8049 3.22352 13.8635 3.22352C12.4441 3.22352 11.1804 4.02939 10.6218 5.26565C10.3745 5.82426 9.4496 5.82426 9.20234 5.26565C8.65289 4.02939 7.38 3.22352 5.96059 3.22352H5.96974Z" fill="#513FAD"/>
</g>
</svg>
