<svg width="20" height="20" viewBox="0 0 20 20" fill="none" xmlns="http://www.w3.org/2000/svg">
<g id="Search">
<path id="Vector" d="M17.5758 18.3355C17.3822 18.3355 17.1886 18.2598 17.037 18.1167L13.1734 14.253C11.9192 15.2631 10.3704 15.8187 8.73738 15.8187C6.85186 15.8187 5.07576 15.0864 3.73738 13.748C2.399 12.4096 1.66667 10.6335 1.66667 8.74798C1.66667 6.86245 2.399 5.06953 3.73738 3.73114C6.49832 0.978617 10.9849 0.978617 13.7374 3.73114C15.0758 5.06953 15.8081 6.84562 15.8081 8.73114C15.8081 10.3641 15.2609 11.913 14.2424 13.1672L18.1061 17.0308C18.4007 17.3254 18.4007 17.8052 18.1061 18.0998C17.9546 18.2513 17.7609 18.3187 17.5673 18.3187L17.5758 18.3355ZM8.73738 3.184C7.31482 3.184 5.89226 3.72272 4.8064 4.80858C3.75421 5.86077 3.18182 7.24966 3.18182 8.73956C3.18182 10.2295 3.76263 11.6183 4.8064 12.6705C5.85859 13.7227 7.24748 14.2951 8.73738 14.2951C10.2273 14.2951 11.6162 13.7143 12.6684 12.6705C13.7205 11.6183 14.2929 10.2295 14.2929 8.73956C14.2929 7.24966 13.7121 5.86077 12.6684 4.80858C11.5825 3.72272 10.1599 3.184 8.73738 3.184Z" fill="#513FAD"/>
</g>
</svg>
