<svg width="16" height="16" viewBox="0 0 16 16" fill="none" xmlns="http://www.w3.org/2000/svg">
<g id="icon-wrapper">
<path id="Union" d="M14.8199 15.5026C14.6456 15.5026 14.4714 15.4344 14.335 15.3057L10.8578 11.8284C9.72898 12.7375 8.33504 13.2375 6.86535 13.2375C5.16838 13.2375 3.56989 12.5784 2.36535 11.3738C1.1608 10.1693 0.501709 8.57081 0.501709 6.87384C0.501709 5.17687 1.1608 3.56323 2.36535 2.35869C4.85019 -0.118586 8.88807 -0.118586 11.3653 2.35869C12.5699 3.56323 13.229 5.16172 13.229 6.85869C13.229 8.32838 12.7366 9.72232 11.8199 10.8511L15.2972 14.3284C15.5623 14.5935 15.5623 15.0254 15.2972 15.2905C15.1608 15.4269 14.9866 15.4875 14.8123 15.4875L14.8199 15.5026ZM6.86535 1.86626C5.58504 1.86626 4.30474 2.35111 3.32747 3.32838C2.3805 4.27535 1.86535 5.52535 1.86535 6.86626C1.86535 8.20717 2.38807 9.45717 3.32747 10.4041C4.27444 11.3511 5.52444 11.8663 6.86535 11.8663C8.20625 11.8663 9.45625 11.3435 10.4032 10.4041C11.3502 9.45717 11.8653 8.20717 11.8653 6.86626C11.8653 5.52535 11.3426 4.27535 10.4032 3.32838C9.42595 2.35111 8.14565 1.86626 6.86535 1.86626Z" fill="black" fill-opacity="0.45"/>
</g>
</svg>
