<svg width="32" height="32" viewBox="0 0 32 32" fill="none" xmlns="http://www.w3.org/2000/svg">
<g id="edit">
<path id="Vector" d="M27.7533 4.24688C27.2662 3.75995 26.6057 3.48641 25.917 3.48641C25.2283 3.48641 24.5677 3.75997 24.0807 4.24692C24.0807 4.24694 24.0806 4.24695 24.0806 4.24696L23.1246 5.20302L26.7972 8.87565L27.7533 7.9196C27.7533 7.91959 27.7533 7.91957 27.7533 7.91956C28.2403 7.4325 28.5138 6.77197 28.5138 6.08324C28.5138 5.39453 28.2403 4.73402 27.7533 4.24696C27.7533 4.24694 27.7533 4.24691 27.7533 4.24688ZM27.7533 4.24688L28.2542 3.74606L27.7533 4.24688ZM10.7099 17.6177L20.7868 7.54083L24.4594 11.2135L14.3825 21.2904L14.3824 21.2905C13.6888 21.9844 12.8333 22.4945 11.8931 22.7746C11.8931 22.7746 11.8931 22.7746 11.8931 22.7746L8.51198 23.782L8.5119 23.7821C8.47111 23.7942 8.42779 23.7951 8.38652 23.7847C8.34526 23.7742 8.30759 23.7528 8.27749 23.7227C8.24739 23.6926 8.22599 23.655 8.21555 23.6137C8.20511 23.5724 8.20601 23.5291 8.21817 23.4883L8.2182 23.4882L9.2256 20.1071C9.2256 20.1071 9.22561 20.1071 9.22561 20.1071C9.50577 19.1669 10.0158 18.3114 10.7097 17.6179L10.7099 17.6177Z" fill="white" stroke="white" stroke-width="1.41667"/>
<path id="Vector_2" d="M7.50043 7.5C6.49851 7.5 5.53761 7.89801 4.82914 8.60649C4.12067 9.31496 3.72266 10.2758 3.72266 11.2778V24.5C3.72266 25.5019 4.12067 26.4628 4.82914 27.1713C5.53761 27.8798 6.49851 28.2778 7.50043 28.2778H20.7227C21.7246 28.2778 22.6855 27.8798 23.394 27.1713C24.1024 26.4628 24.5004 25.5019 24.5004 24.5V17.8889C24.5004 17.6384 24.4009 17.3982 24.2238 17.2211C24.0467 17.0439 23.8065 16.9444 23.556 16.9444C23.3055 16.9444 23.0653 17.0439 22.8882 17.2211C22.711 17.3982 22.6115 17.6384 22.6115 17.8889V24.5C22.6115 25.001 22.4125 25.4814 22.0583 25.8356C21.7041 26.1899 21.2236 26.3889 20.7227 26.3889H7.50043C6.99947 26.3889 6.51902 26.1899 6.16479 25.8356C5.81055 25.4814 5.61155 25.001 5.61155 24.5V11.2778C5.61155 10.7768 5.81055 10.2964 6.16479 9.94213C6.51902 9.5879 6.99947 9.38889 7.50043 9.38889H14.1115C14.362 9.38889 14.6023 9.28939 14.7794 9.11227C14.9565 8.93515 15.056 8.69493 15.056 8.44444C15.056 8.19396 14.9565 7.95374 14.7794 7.77662C14.6023 7.5995 14.362 7.5 14.1115 7.5H7.50043Z" fill="white"/>
</g>
</svg>
