<svg width="20" height="20" viewBox="0 0 20 20" fill="none" xmlns="http://www.w3.org/2000/svg">
<g id="fb">
<path id="fb_2" d="M11.9431 20V12.8222H13.8987C14.0482 11.8789 14.1925 10.9511 14.3419 10.0001H11.3865C11.3788 9.93051 11.3711 9.87896 11.3711 9.82742C11.3711 9.23464 11.3659 8.64186 11.3711 8.04908C11.3788 7.25012 11.8606 6.69343 12.6517 6.63157C13.2675 6.58518 13.8884 6.60322 14.5068 6.59291C14.5867 6.59291 14.664 6.59291 14.7516 6.59291V4.11613C14.3754 4.07232 14.0044 4.01819 13.6308 3.98469C12.8191 3.9151 12.0049 3.86613 11.201 4.07489C9.77356 4.44345 8.83051 5.47437 8.62696 6.93054C8.56512 7.36868 8.55482 7.81455 8.54451 8.25784C8.53163 8.82227 8.54193 9.3867 8.54193 9.9769H6.27965V12.8042H8.52905V19.9871C4.34718 19.4459 0.0519479 15.8351 0.000415367 10.0851C-0.0485405 4.62128 4.23639 0.273384 9.4824 0.0130774C15.1046 -0.267848 19.5596 4.01562 19.9641 9.16763C20.4511 15.3377 15.8879 19.2526 11.9405 20H11.9431Z" fill="#513FAD"/>
</g>
</svg>
