<svg width="32" height="32" viewBox="0 0 32 32" fill="none" xmlns="http://www.w3.org/2000/svg">
<g id="heart">
<g id="Vector" filter="url(#filter0_d_1958_931)">
<path d="M15.804 27.7939L15.7948 27.79L15.7662 27.7743C15.5984 27.682 15.4319 27.5873 15.2668 27.4901C13.2824 26.3109 11.4278 24.9257 9.73392 23.3574C6.73409 20.5583 3.55566 16.4047 3.55566 11.289C3.55566 7.47175 6.76799 4.44455 10.6452 4.44455C11.723 4.43927 12.7882 4.67705 13.7615 5.14021C14.7347 5.60337 15.5911 6.27999 16.2668 7.11975C16.9426 6.27982 17.7992 5.6031 18.7727 5.13993C19.7462 4.67676 20.8116 4.43907 21.8896 4.44455C25.7656 4.44455 28.9779 7.47175 28.9779 11.289C28.9779 16.406 25.7995 20.5596 22.7996 23.3561C21.1058 24.9244 19.2512 26.3096 17.2667 27.4888C17.1017 27.5864 16.9352 27.6816 16.7674 27.7743L16.7387 27.79L16.7296 27.7952L16.7257 27.7965C16.5843 27.8714 16.4268 27.9105 16.2668 27.9105C16.1068 27.9105 15.9492 27.8714 15.8079 27.7965L15.804 27.7939Z" fill="#FF4D4F"/>
<path d="M16.2668 27.4105C16.1954 27.4105 16.1249 27.3946 16.0606 27.364L16.0432 27.3524L16.0135 27.3397L16.0072 27.3363C16.0069 27.3361 16.0066 27.336 16.0064 27.3358C15.8435 27.2462 15.6819 27.1542 15.5216 27.0599C13.5679 25.8989 11.7422 24.5352 10.0745 22.9913C7.10837 20.2236 4.05566 16.1944 4.05566 11.289C4.05566 7.76778 7.02382 4.94455 10.6452 4.94456L10.6477 4.94454C11.6503 4.93963 12.6412 5.16084 13.5466 5.5917C14.452 6.02256 15.2486 6.652 15.8772 7.4332L16.2668 7.91733L16.6563 7.4332C17.285 6.65184 18.0819 6.0223 18.9875 5.59143C19.8931 5.16056 20.8842 4.93945 21.8871 4.94455H21.8896C25.5097 4.94455 28.4779 7.76772 28.4779 11.289C28.4779 16.1957 25.4253 20.2247 22.4593 22.9897C20.7916 24.5338 18.9657 25.8977 17.0118 27.0587C16.8514 27.1535 16.6897 27.2459 16.5267 27.3361C16.5267 27.3361 16.5266 27.3361 16.5266 27.3361C16.5266 27.3361 16.5266 27.3361 16.5266 27.3361C16.5262 27.3363 16.5259 27.3365 16.5255 27.3367L16.4916 27.3547C16.4224 27.3913 16.3452 27.4105 16.2668 27.4105Z" stroke="white"/>
</g>
</g>
<defs>
<filter id="filter0_d_1958_931" x="0.555664" y="2.44446" width="31.4221" height="29.4661" filterUnits="userSpaceOnUse" color-interpolation-filters="sRGB">
<feFlood flood-opacity="0" result="BackgroundImageFix"/>
<feColorMatrix in="SourceAlpha" type="matrix" values="0 0 0 0 0 0 0 0 0 0 0 0 0 0 0 0 0 0 127 0" result="hardAlpha"/>
<feOffset dy="1"/>
<feGaussianBlur stdDeviation="1.5"/>
<feComposite in2="hardAlpha" operator="out"/>
<feColorMatrix type="matrix" values="0 0 0 0 0 0 0 0 0 0 0 0 0 0 0 0 0 0 0.1 0"/>
<feBlend mode="normal" in2="BackgroundImageFix" result="effect1_dropShadow_1958_931"/>
<feBlend mode="normal" in="SourceGraphic" in2="effect1_dropShadow_1958_931" result="shape"/>
</filter>
</defs>
</svg>
