<svg width="32" height="32" viewBox="0 0 32 32" fill="none" xmlns="http://www.w3.org/2000/svg">
<g id="heart">
<g id="Vector" filter="url(#filter0_d_1958_1961)">
<path d="M15.8038 27.7939L15.7947 27.79L15.766 27.7743C15.5982 27.682 15.4318 27.5873 15.2667 27.4901C13.2822 26.3109 11.4277 24.9257 9.73379 23.3574C6.73397 20.5583 3.55554 16.4047 3.55554 11.289C3.55554 7.47175 6.76787 4.44455 10.6451 4.44455C11.7229 4.43927 12.7881 4.67705 13.7614 5.14021C14.7346 5.60337 15.591 6.27999 16.2667 7.11975C16.9425 6.27982 17.799 5.6031 18.7725 5.13993C19.746 4.67676 20.8115 4.43907 21.8895 4.44455C25.7654 4.44455 28.9778 7.47175 28.9778 11.289C28.9778 16.406 25.7993 20.5596 22.7995 23.3561C21.1057 24.9244 19.2511 26.3096 17.2666 27.4888C17.1015 27.5864 16.9351 27.6816 16.7673 27.7743L16.7386 27.79L16.7295 27.7952L16.7256 27.7965C16.5842 27.8714 16.4266 27.9105 16.2667 27.9105C16.1067 27.9105 15.9491 27.8714 15.8077 27.7965L15.8038 27.7939Z" fill="white" fill-opacity="0.5" shape-rendering="crispEdges"/>
<path d="M16.2667 27.4105C16.1952 27.4105 16.1248 27.3946 16.0605 27.364L16.0431 27.3524L16.0134 27.3397L16.0071 27.3363C16.0068 27.3361 16.0065 27.336 16.0063 27.3358C15.8433 27.2462 15.6817 27.1542 15.5215 27.0599C13.5678 25.8989 11.742 24.5352 10.0744 22.9913C7.10824 20.2236 4.05554 16.1944 4.05554 11.289C4.05554 7.76778 7.02369 4.94455 10.6451 4.94456L10.6475 4.94454C11.6502 4.93963 12.6411 5.16084 13.5465 5.5917C14.4519 6.02256 15.2485 6.652 15.8771 7.4332L16.2667 7.91733L16.6562 7.4332C17.2849 6.65184 18.0817 6.0223 18.9874 5.59143C19.893 5.16056 20.8841 4.93945 21.887 4.94455H21.8895C25.5096 4.94455 28.4778 7.76772 28.4778 11.289C28.4778 16.1957 25.4251 20.2247 22.4592 22.9897C20.7915 24.5338 18.9655 25.8977 17.0117 27.0587C16.8513 27.1535 16.6896 27.2459 16.5266 27.3361C16.5266 27.3361 16.5265 27.3361 16.5265 27.3361C16.5265 27.3361 16.5265 27.3361 16.5265 27.3361C16.5261 27.3363 16.5257 27.3365 16.5254 27.3367L16.4915 27.3547C16.4222 27.3913 16.345 27.4105 16.2667 27.4105Z" stroke="white" shape-rendering="crispEdges"/>
</g>
</g>
<defs>
<filter id="filter0_d_1958_1961" x="0.555542" y="2.44446" width="31.4222" height="29.4661" filterUnits="userSpaceOnUse" color-interpolation-filters="sRGB">
<feFlood flood-opacity="0" result="BackgroundImageFix"/>
<feColorMatrix in="SourceAlpha" type="matrix" values="0 0 0 0 0 0 0 0 0 0 0 0 0 0 0 0 0 0 127 0" result="hardAlpha"/>
<feOffset dy="1"/>
<feGaussianBlur stdDeviation="1.5"/>
<feComposite in2="hardAlpha" operator="out"/>
<feColorMatrix type="matrix" values="0 0 0 0 0 0 0 0 0 0 0 0 0 0 0 0 0 0 0.1 0"/>
<feBlend mode="normal" in2="BackgroundImageFix" result="effect1_dropShadow_1958_1961"/>
<feBlend mode="normal" in="SourceGraphic" in2="effect1_dropShadow_1958_1961" result="shape"/>
</filter>
</defs>
</svg>
