<svg width="34" height="32" viewBox="0 0 34 32" fill="none" xmlns="http://www.w3.org/2000/svg">
<path d="M17.0922 4.5354C20.4608 4.66734 23.8294 4.78691 27.1981 4.93947C27.9897 4.97658 28.7855 5.07966 29.5689 5.22397C31.4614 5.57032 32.6737 6.84438 33.0324 8.83175C33.5313 11.5902 33.6302 14.3774 33.5354 17.1647C33.4694 19.1067 33.2839 21.0446 33.0942 22.9784C32.954 24.3967 32.3768 25.6007 31.1275 26.4047C30.3647 26.8954 29.5029 27.0397 28.6288 27.1304C24.9963 27.5097 21.3514 27.5757 17.7065 27.5592C14.4946 27.5427 11.2867 27.4314 8.07478 27.3201C7.04399 27.283 6.00908 27.1552 4.98653 27.0026C2.94968 26.7016 1.7086 25.4894 1.30453 23.469C0.925194 21.5765 0.834485 19.6551 0.77676 17.7337C0.69842 15.1278 0.776762 12.522 1.10662 9.92852C1.17671 9.36776 1.27567 8.80289 1.41585 8.25451C1.85703 6.52689 3.26716 5.36828 5.14733 5.13326C8.34279 4.73331 11.5547 4.70033 14.7626 4.64673C15.5377 4.63436 16.3129 4.64673 17.0839 4.64673C17.0839 4.61374 17.0839 4.57663 17.0839 4.54365L17.0922 4.5354ZM13.9132 11.1943V20.991C16.7582 19.3541 19.5702 17.7337 22.4276 16.0927C19.562 14.4434 16.7541 12.8271 13.9132 11.1943Z" fill="#513FAD"/>
</svg>
